<svg version="1.2" xmlns="http://www.w3.org/2000/svg" viewBox="0 0 1280 185" width="1280" height="185"><style>.a{fill:none;stroke:#2e86b1;stroke-miterlimit:100;stroke-width:16}.b{fill:#2e86b1}</style><path class="a" d=""/><path class="b" d="m41 171h-38.5v-168.1h39.7l47.7 99.9 48.2-99.9h39.3v168.1h-38.9v-85.4l-28.1 58.9h-40.5l-28.9-59.3zm281.6-22.5v22.5h-115.1v-168.1h115.1v22.5h-76.6v44.9h60.1v22.5h-60.1v55.7zm107.9-114.3l-29.3 74.6h58.1zm-28-31.3h55.7l61.4 168.1h-38.5l-14.1-39.7h-73.4l-13.6 39.7h-38.5zm223.4 134.3v-36.5q0-11.2-16.4-11.2h-23.7q-31.3 0-43.3-16.8-4-5.7-4-12.9v-26.8q0-13.7 13.6-21.7 14-8.4 33.7-8.4h31.3q19.6 0 33.3 8 14 8 14 22.1v16.4h-38.5v-12.8q0-11.3-16.4-11.3h-16.1q-16.4 0-16.4 11.3v19.2q0 12 16.4 11.2h23.7q19.6 0 33.3 8.1 14 8 14 22v43.7q0 14.1-14.4 22.1-13.3 8-32.9 8h-31.3q-30.9 0-43.3-17.2-4-5.6-4-12.9v-22.4h38.5v18.8q0 11.3 16.4 11.3h16.1q16.4 0 16.4-11.3zm123.9 11.3h17.7q16 0 16-11.3v-134.3h38.9v137.9q0 13.7-14 22.1-13.6 8-33.3 8h-32.9q-30.9 0-43.3-17.2-4-5.6-4-12.9v-137.9h38.5v134.3q0 11.3 16.4 11.3zm141.6-74.6h30.9q16.4 0 16.4-11.3v-26q0-11.3-16.4-11.3h-30.9zm39.3 22.5l55.4 74.6h-40.5l-54.2-73v73h-38.5v-168.1h77.4q19.3 0 32.9 8.1 14.1 8 14.1 22v33.3q0 14-13.7 22.1-13.6 8-32.9 8zm185.3 52.1v22.5h-115.1v-168.1h115.1v22.5h-76.6v44.9h60.2v22.5h-60.2v55.7zm67-74.6h30.9q16.4 0 16.4-11.2v-26.1q0-11.2-16.4-11.2h-30.9zm39.3 22.5l55.4 74.6h-40.6l-54.1-73v73h-38.5v-168.1h77.4q19.3 0 32.9 8 14 8 14 22.1v33.3q0 14-13.6 22-13.6 8.1-32.9 8.1z"/></svg>